# xmcd
#
# Track frame offsets:
#	150
#	13345
#	26669
#	40764
#	52335
#	62228
#	73774
#	86176
#	96062
#	107828
#	122614
#	135507
#	151264
#	162726
#	173988
#	192078
#	207280
#	218405
#	228196
#	244917
#
# Disc length: 3413 seconds
#
# Revision: 0
# Processed by: cddbd v1.5.1PL0 Copyright (c) Steve Scherf et al.
# Submitted via: EasyCDDAExtractor 7.1.3.1
#
DISCID=1f0d5314
DTITLE=Various Artist - Haitarimestarit, Toivekonsertti
DYEAR=2000
DGENRE=Hanuri
TTITLE0=Lopen Harmonikat - Leila
TTITLE1=Erkki Marjasvaaran orkesteri - Suvivalssi
TTITLE2=Kalevi Nyqvist - Satumaa
TTITLE3=Kalevi Nyqvist - Syyspihlajan alla
TTITLE4=Kalevi Nyqvist - Jätkän lauantai
TTITLE5=Kalevi Nyqvist - Rempallaan
TTITLE6=Kalevi Nyqvist - Säkkijärven polkka
TTITLE7=Lopen Harmonikat - Hilpeä hanuri
TTITLE8=Kalevi Nyqvist - Rantamökissä
TTITLE9=Kalevi Nyqvist - Iltatuulen Viesti
TTITLE10=Seppo Leino - Sabina
TTITLE11=Seppo Leino - Vaaralliset huulet
TTITLE12=Risto Lihr - Odessa
TTITLE13=Kalevi Nyqvist - Tulipunaruusut
TTITLE14=Suuri Tango orkesteri Bandola - Mustasukkaisuutta
TTITLE15=Seppo Hovi - Kotiseutuni
TTITLE16=Kalevi Nyqvist - Viipurin Vihtori
TTITLE17=Kalevi Nyqvist - Väärä vitonen
TTITLE18=Erkki Frimannin orkesteri - Pariisin taivaan alla
TTITLE19=Kalevi Nyqvist - Kultainen nuoruus
EXTD=
EXTT0=
EXTT1=
EXTT2=
EXTT3=
EXTT4=
EXTT5=
EXTT6=
EXTT7=
EXTT8=
EXTT9=
EXTT10=
EXTT11=
EXTT12=
EXTT13=
EXTT14=
EXTT15=
EXTT16=
EXTT17=
EXTT18=
EXTT19=
PLAYORDER=
